<?xml version="1.0" encoding="UTF-8"?>
<svg version="1.1" xmlns="http://www.w3.org/2000/svg" width="500" height="500">
<path d="M0 0 C0.7921281 -0.00507454 1.5842562 -0.01014909 2.40038818 -0.0153774 C3.26468053 -0.01587516 4.12897288 -0.01637292 5.01945591 -0.01688576 C5.94222861 -0.02126801 6.86500132 -0.02565027 7.81573683 -0.03016531 C10.91485965 -0.04354446 14.01395405 -0.04973011 17.1130991 -0.0558567 C19.33215049 -0.06375811 21.55120061 -0.07202708 23.77024937 -0.08063698 C31.06168486 -0.10684365 38.35312607 -0.12215917 45.64459324 -0.13642311 C48.15312866 -0.14178257 50.66166405 -0.14716008 53.17019939 -0.15255547 C63.60077315 -0.17417852 74.03134628 -0.19306858 84.46193695 -0.20417786 C87.16694677 -0.20710748 89.87195656 -0.21006916 92.57696629 -0.21308327 C93.58542436 -0.21420234 93.58542436 -0.21420234 94.61425532 -0.21534403 C105.51326644 -0.22800679 116.41211478 -0.26124511 127.31104975 -0.3028851 C138.50170433 -0.34528933 149.69230028 -0.36846306 160.88304049 -0.37409842 C167.16600524 -0.37775811 173.44869363 -0.38984604 179.73158169 -0.42220116 C185.63890232 -0.45218755 191.54577796 -0.45862718 197.45315838 -0.4468174 C199.62319309 -0.4465959 201.79324791 -0.4549634 203.96321201 -0.47247124 C206.92203546 -0.49504806 209.87922943 -0.48692113 212.83805943 -0.47098732 C213.70012105 -0.48486941 214.56218268 -0.49875149 215.45036739 -0.51305425 C219.80415321 -0.45513819 221.45379815 -0.30153263 224.94475746 2.54171371 C225.62042983 3.39816294 226.2961022 4.25461216 226.99224949 5.13701439 C227.62389011 5.84084251 228.25553074 6.54467064 228.90631199 7.26982689 C229.47092136 7.92724876 230.03553074 8.58467064 230.61724949 9.26201439 C232.26220948 11.17493166 233.86928045 13.02078338 235.70318699 14.75420189 C236.99224949 16.13701439 236.99224949 16.13701439 236.99224949 18.13701439 C237.56846043 18.37678001 238.14467136 18.61654564 238.73834324 18.86357689 C241.44974905 20.39549768 243.01666831 22.15774491 245.05474949 24.51201439 C248.58758657 28.54202226 252.16462807 32.51693248 255.80474949 36.44951439 C259.01373266 39.91780933 262.04984005 43.44174966 264.99224949 47.13701439 C265.81724949 47.96201439 266.64224949 48.78701439 267.49224949 49.63701439 C269.8737162 52.0184811 271.89096547 54.51040936 273.99224949 57.13701439 C274.81724949 57.96201439 275.64224949 58.78701439 276.49224949 59.63701439 C278.87273659 62.01750149 280.90012567 64.50498766 282.99224949 67.13701439 C283.73474949 67.85888939 284.47724949 68.58076439 285.24224949 69.32451439 C286.99224949 71.13701439 286.99224949 71.13701439 286.99224949 73.13701439 C287.63162449 73.40513939 288.27099949 73.67326439 288.92974949 73.94951439 C290.99224949 75.13701439 290.99224949 75.13701439 291.99224949 78.13701439 C292.98224949 78.46701439 293.97224949 78.79701439 294.99224949 79.13701439 C296.46490574 80.59795189 296.46490574 80.59795189 298.05474949 82.51201439 C301.84413498 86.9881755 305.78736083 91.30561367 309.75787449 95.62138939 C310.49521824 96.45154564 311.23256199 97.28170189 311.99224949 98.13701439 C312.52497093 98.72111548 313.05769238 99.30521658 313.60655689 99.90701771 C315.43627399 102.85158353 315.37926569 104.8752721 315.39770603 108.33258629 C315.41169343 109.61146784 315.42568083 110.89034939 315.44009209 112.20798492 C315.44051433 113.62907086 315.44063684 115.05015691 315.44049168 116.4712429 C315.45112712 117.97708552 315.46304221 119.48291955 315.47613144 120.98874283 C315.50815029 125.12420036 315.52130595 129.25953449 315.53112769 133.39509654 C315.54467053 137.83354728 315.57480305 142.27189106 315.60249424 146.71027184 C315.6534117 155.3638673 315.68695068 164.01744802 315.7134878 172.67114955 C315.7350301 179.67792266 315.7619289 186.68465587 315.79214573 193.69139671 C316.02887829 249.33606986 316.08927449 304.98191424 315.83645451 360.62662047 C315.81013915 366.56368096 315.79304516 372.50072423 315.77948093 378.43782616 C315.76254607 385.64242561 315.73072645 392.84677812 315.67951053 400.05121857 C315.65374466 403.70238521 315.63382364 407.3533075 315.63072491 411.00457001 C315.62699864 414.9449813 315.59214965 418.88476605 315.55401707 422.82500267 C315.55921171 424.53703802 315.55921171 424.53703802 315.5645113 426.28365993 C315.47586614 432.38627789 315.26218992 438.39831318 310.99224949 443.13701439 C304.75973941 447.89116121 299.07345327 447.70501972 291.42877293 447.65167809 C290.16182968 447.65862361 288.89488644 447.66556914 287.58955097 447.67272514 C284.08425756 447.6913242 280.57938743 447.68505724 277.07407665 447.67457211 C273.28939877 447.6675723 269.50480716 447.68358387 265.72015476 447.69656944 C258.31051513 447.71820111 250.90102912 447.7180848 243.49136829 447.7099439 C237.46898255 447.70364206 231.44664159 447.70478262 225.42425632 447.71121597 C224.13816758 447.71256846 224.13816758 447.71256846 222.82609725 447.71394826 C221.08427809 447.71579947 219.34245895 447.71766203 217.60063982 447.71953582 C201.27059601 447.73611117 184.94063861 447.72739711 168.61059999 447.71055024 C153.67155568 447.69585119 138.73271244 447.71048501 123.79369402 447.7393204 C108.45123829 447.76871385 93.10887537 447.77968699 77.76639271 447.7701382 C76.03100937 447.76911566 74.29562602 447.76812105 72.56024265 447.76715469 C71.27950623 447.76644011 71.27950623 447.76644011 69.97289634 447.76571109 C63.95827481 447.76354701 57.94374117 447.77335058 51.92913914 447.78792572 C44.5985144 447.80544232 37.2681461 447.80534137 29.93753147 447.78257407 C26.19781645 447.77142599 22.45855334 447.76828164 18.71885777 447.78687477 C14.66410803 447.80677487 10.61046079 447.78790841 6.55572605 447.76520348 C5.37469681 447.7770392 4.19366756 447.78887493 2.97684956 447.80106932 C-2.7726234 447.73551454 -6.95754059 447.40275936 -11.62521648 443.89227337 C-15.59242346 438.85552525 -16.38301463 433.96624253 -16.38806725 427.69187832 C-16.39272716 426.97201611 -16.39738708 426.25215391 -16.40218821 425.51047769 C-16.41411833 423.10358109 -16.40475072 420.69725106 -16.39543056 418.29034996 C-16.39960435 416.54521607 -16.40508212 414.8000849 -16.41175038 413.05495876 C-16.42621773 408.26329931 -16.42195621 403.47181167 -16.41458356 398.68014276 C-16.40985742 393.51099552 -16.42235682 388.34188575 -16.43260098 383.17275047 C-16.44980496 373.04764104 -16.45062569 362.92259363 -16.44538807 352.79747338 C-16.44134824 344.5687735 -16.4427877 336.34009197 -16.44813633 328.11139297 C-16.44888475 326.94067338 -16.44963317 325.76995379 -16.45040428 324.56375785 C-16.45193574 322.18552343 -16.45347408 319.80728902 -16.45501924 317.42905461 C-16.46874998 295.12209906 -16.46330248 272.81517858 -16.45183403 250.50822382 C-16.44190026 230.09598122 -16.45484383 209.68382924 -16.47876822 189.27160061 C-16.50314417 168.31638097 -16.51277084 147.36120357 -16.5061155 126.40597004 C-16.50262003 114.63954434 -16.50487696 102.87318837 -16.52236652 91.10677338 C-16.53706964 81.09067897 -16.53774863 71.07470337 -16.52029561 61.05861134 C-16.51176784 55.94774967 -16.50967948 50.83710043 -16.52494717 45.72624969 C-16.53875114 41.047485 -16.53408643 36.36911558 -16.51470793 31.69037401 C-16.51093443 29.99799029 -16.51390864 28.30557523 -16.52431958 26.61321933 C-16.61427853 10.87019267 -16.61427853 10.87019267 -12.00775051 4.13701439 C-8.45909536 0.69925471 -4.82624567 0.01648567 0 0 Z M136.99224949 173.13701439 C134.34614029 178.35136592 133.5663851 182.59493348 133.65167332 188.45903587 C133.65123524 189.25985085 133.65079716 190.06066582 133.6503458 190.88574791 C133.65242153 193.51012347 133.67569435 196.13384537 133.69928074 198.75810814 C133.70488103 200.5865602 133.70914908 202.41501678 133.7121439 204.24347496 C133.72355854 209.03902841 133.75299644 213.83430614 133.78625584 218.62975121 C133.8170298 223.52992079 133.83066486 228.43013524 133.84576511 233.33037376 C133.87786954 242.93270796 133.92902477 252.53483818 133.99224949 262.13701439 C132.46795071 262.13035255 132.46795071 262.13035255 130.91285801 262.12355614 C121.3342194 262.0830055 111.75559822 262.05302778 102.17689323 262.03339005 C97.25243457 262.0229547 92.32804522 262.00879996 87.40362644 261.98613548 C82.65093079 261.96439835 77.8983018 261.95244389 73.14556026 261.9472599 C71.33268465 261.94356572 69.51981267 261.93635193 67.70696545 261.92555428 C65.16697027 261.91102783 62.62725026 261.90903693 60.08722019 261.90996361 C58.96404392 261.89917778 58.96404392 261.89917778 57.81817722 261.88817406 C52.2242282 261.91024474 48.72896275 262.80418794 44.30474949 266.19951439 C41.29828981 270.01853074 40.17020339 273.28372627 39.99224949 278.13701439 C40.91668574 283.0905973 42.9141364 287.07842957 46.99224949 290.13701439 C52.15479791 292.74828192 56.32530774 293.5642089 62.13067722 293.47759056 C62.91198505 293.47802864 63.69329288 293.47846672 64.49827671 293.47891808 C67.05772777 293.476843 69.61650789 293.45357341 72.17584324 293.42998314 C73.95945471 293.42438261 75.74307082 293.42011467 77.52668858 293.41711998 C82.20387781 293.40570716 86.88078421 293.3762709 91.55786228 293.34300804 C96.33738473 293.31223008 101.11695322 293.29859817 105.89654636 293.28349876 C115.26190449 293.25139758 124.6270534 293.20024463 133.99224949 293.13701439 C133.98114643 294.11705437 133.97004337 295.09709435 133.95860386 296.1068325 C133.85693341 305.37478451 133.78214351 314.64262231 133.73318863 323.91100693 C133.7071735 328.67521982 133.67192453 333.43897997 133.61505222 338.20293236 C133.56044225 342.80656019 133.53076825 347.40975449 133.51786327 352.01368141 C133.50867512 353.76387029 133.49073327 355.51403734 133.46359921 357.26403999 C133.13246489 370.97989946 133.13246489 370.97989946 138.99224949 383.13701439 C142.92705745 386.17754781 146.80810681 386.73644054 151.67974949 386.54717064 C155.7499174 385.82526586 159.11255638 384.10140435 161.99224949 381.13701439 C164.6438457 375.96175937 165.41868229 371.73554094 165.33282566 365.90678978 C165.33326374 365.11572838 165.33370182 364.32466698 165.33415318 363.50963402 C165.33207777 360.91772075 165.30880654 358.32646967 165.28521824 355.73467064 C165.27961783 353.92863887 165.27534983 352.12260253 165.27235508 350.31656456 C165.26094134 345.58019324 165.23150425 340.84410115 165.19824314 336.10783958 C165.16746721 331.26799356 165.1538337 326.42810209 165.13873386 321.58818626 C165.10663104 312.10434012 165.05547693 302.62070054 164.99224949 293.13701439 C165.97228947 293.14811745 166.95232944 293.1592205 167.9620676 293.17066002 C177.23001961 293.27233047 186.49785741 293.34712036 195.76624203 293.39607525 C200.53045492 293.42209038 205.29421507 293.45733935 210.05816746 293.51421165 C214.66179529 293.56882163 219.26498959 293.59849563 223.86891651 293.6114006 C225.61910539 293.62058876 227.36927244 293.63853061 229.11927509 293.66566467 C242.80998563 293.95155013 242.80998563 293.95155013 254.99224949 288.13701439 C258.58564934 284.21694183 258.97394596 279.30776043 258.99224949 274.13701439 C258.0106439 268.46551543 255.49986958 266.35674302 250.99224949 263.13701439 C247.29373636 261.90417668 243.88293845 262.00540091 240.03253269 262.023489 C239.22254826 262.02334297 238.41256382 262.02319695 237.5780344 262.02304649 C234.89967264 262.02374339 232.22138035 262.03152536 229.54303074 262.03935814 C227.68643831 262.04122311 225.82984539 262.04264664 223.9732523 262.04364586 C219.08569068 262.04746479 214.19815875 262.05728978 209.31060886 262.06834984 C204.32363378 262.07857735 199.33665391 262.08314636 194.34967136 262.08818626 C184.56385102 262.09891258 174.77805272 262.11598155 164.99224949 262.13701439 C164.99891132 261.12525642 165.00557316 260.11349846 165.01243687 259.07108116 C165.07332961 249.52251853 165.11826131 239.97399544 165.147686 230.42528248 C165.16332224 225.51652922 165.18452322 220.60793309 165.21856785 215.69927025 C165.25123411 210.9595244 165.26911786 206.21992941 165.27688122 201.48007965 C165.28241169 199.67442577 165.29321136 197.86877988 165.30943966 196.06319046 C165.33131068 193.52829268 165.3342124 190.99401327 165.33282566 188.45903587 C165.34361149 187.71744225 165.35439732 186.97584862 165.36550999 186.21178246 C165.33195089 180.51890661 164.18622434 175.84967351 160.55474949 171.35967064 C156.08828097 168.04331777 152.18132608 167.37534429 146.64849949 167.65654564 C142.56958743 168.39434885 139.61104999 169.8990953 136.99224949 173.13701439 Z " fill="#51A1FD" transform="translate(103.00775051116943,26.862985610961914)"/>
<path d="M0 0 C0.33 0 0.66 0 1 0 C1.67590913 86.16250069 2.26730798 172.32726154 1.84635669 258.49247497 C1.81814367 264.42821242 1.80013927 270.36392611 1.78640747 276.29971313 C1.76937471 283.50454306 1.73782362 290.70912912 1.6869601 297.91380292 C1.66137679 301.5651256 1.64160248 305.21620709 1.63852692 308.86762428 C1.6348037 312.80801303 1.5999275 316.74777448 1.56176758 320.68798828 C1.56522973 321.82934392 1.56869188 322.97069956 1.57225895 324.14664173 C1.48361933 330.24926065 1.26994082 336.26129836 -3 341 C-9.23251008 345.75414683 -14.91879622 345.56800533 -22.56347656 345.5146637 C-23.83041981 345.52160922 -25.09736305 345.52855475 -26.40269852 345.53571075 C-29.90799193 345.55430981 -33.41286206 345.54804285 -36.91817284 345.53755772 C-40.70285072 345.53055791 -44.48744233 345.54656948 -48.27209473 345.55955505 C-55.68173436 345.58118672 -63.09122037 345.58107042 -70.5008812 345.57292951 C-76.52326694 345.56662767 -82.5456079 345.56776823 -88.56799316 345.57420158 C-89.85408191 345.57555407 -89.85408191 345.57555407 -91.16615224 345.57693387 C-92.90797139 345.57878508 -94.64979054 345.58064765 -96.39160967 345.58252143 C-112.72165348 345.59909678 -129.05161087 345.59038272 -145.38164949 345.57353585 C-160.32069381 345.5588368 -175.25953705 345.57347062 -190.19855547 345.60230602 C-205.5410112 345.63169946 -220.88337412 345.6426726 -236.22585678 345.63312382 C-237.96124012 345.63210127 -239.69662347 345.63110666 -241.43200684 345.6301403 C-242.71274326 345.62942572 -242.71274326 345.62942572 -244.01935315 345.6286967 C-250.03397468 345.62653262 -256.04850832 345.63633619 -262.06311035 345.65091133 C-269.39373509 345.66842793 -276.72410339 345.66832699 -284.05471802 345.64555968 C-287.79443304 345.6344116 -291.53369615 345.63126725 -295.27339172 345.64986038 C-299.32814146 345.66976048 -303.3817887 345.65089402 -307.43652344 345.62818909 C-308.61755268 345.64002482 -309.79858192 345.65186054 -311.01539993 345.66405493 C-317.97318741 345.58472309 -321.93538137 344.94326884 -327 340 C-327.67358017 337.83057886 -327.67358017 337.83057886 -328 336 C-327.01 336.33 -326.02 336.66 -325 337 C-324.3125 339.0625 -324.3125 339.0625 -324 341 C-310.99276435 341.84423006 -298.02464664 342.1981235 -284.9921875 342.31640625 C-283.04492829 342.33704576 -281.09767285 342.35804365 -279.15042114 342.37937927 C-274.09050604 342.43387933 -269.03055553 342.48359808 -263.97058105 342.53222656 C-258.78113758 342.58297706 -253.59174384 342.63838001 -248.40234375 342.69335938 C-238.26827191 342.80005572 -228.1341564 342.90168707 -218 343 C-218.63035156 342.07960938 -219.26070313 341.15921875 -219.91015625 340.2109375 C-222 337 -222 337 -223.4375 333.625 C-224.64429627 330.82523266 -225.77246279 328.73740314 -227.4375 326.25 C-232.00240503 319.1551476 -234.02149429 311.1182069 -236 303 C-236.34350938 301.64283776 -236.68855242 300.28606275 -237.03515625 298.9296875 C-237.37760417 297.578125 -237.72005208 296.2265625 -238.0625 294.875 C-238.23587891 294.19824219 -238.40925781 293.52148438 -238.58789062 292.82421875 C-240.7889491 284.1043166 -241.21711279 275.84988321 -241.24023438 266.89990234 C-241.24982423 264.66594507 -241.28083683 262.43295613 -241.3125 260.19921875 C-241.40267442 247.84873885 -240.060574 235.89322126 -235.75 224.21875 C-234.48893815 220.48810869 -233.69735466 216.63809598 -232.84375 212.796875 C-231.88296644 209.61205543 -231.13051742 207.58161027 -229 205 C-226.14715721 204.54428997 -223.89483029 204.41387193 -221.05078125 204.51171875 C-220.27816452 204.51879349 -219.50554779 204.52586823 -218.70951843 204.53315735 C-216.24285858 204.56113745 -213.77847296 204.62387593 -211.3125 204.6875 C-209.64000676 204.7125785 -207.96747791 204.73539246 -206.29492188 204.75585938 C-202.19573891 204.81097509 -198.09825493 204.89726704 -194 205 C-193.99453156 206.39489151 -193.99453156 206.39489151 -193.98895264 207.81796265 C-193.95096272 216.61531265 -193.89398566 225.41229607 -193.81609726 234.20938683 C-193.77671981 238.73123931 -193.7444839 243.25289989 -193.72900391 247.77490234 C-193.71377281 252.14532125 -193.67921416 256.51521224 -193.63169098 260.88539505 C-193.61694334 262.54615291 -193.60896281 264.20698617 -193.60811615 265.8678093 C-193.59579701 277.92464709 -192.70455198 288.2223242 -183.953125 297.3046875 C-177.13997978 303.21849755 -169.62380239 303.75439326 -160.8984375 303.39453125 C-155.18014121 302.81582591 -149.53881107 301.53881107 -145.36328125 297.36328125 C-144.91339844 296.91339844 -144.46351563 296.46351563 -144 296 C-143.34 296 -142.68 296 -142 296 C-141.7525 295.34 -141.505 294.68 -141.25 294 C-139.94482249 290.86757397 -138.45646726 287.88160064 -136.90234375 284.8671875 C-134.94256797 280.81189389 -134.83138283 277.17840292 -134.79467773 272.7746582 C-134.78477814 272.04270233 -134.77487854 271.31074646 -134.76467896 270.55661011 C-134.73309989 268.13803335 -134.70832077 265.71943696 -134.68359375 263.30078125 C-134.66302112 261.62354523 -134.64202456 259.94631436 -134.62062073 258.26908875 C-134.56543199 253.85505341 -134.51600861 249.44097154 -134.46777344 245.02685547 C-134.41753507 240.52241881 -134.36186119 236.01804972 -134.30664062 231.51367188 C-134.19909817 222.67583898 -134.09764449 213.83794741 -134 205 C-132.6239006 204.99453156 -132.6239006 204.99453156 -131.22000122 204.98895264 C-122.54037764 204.95095978 -113.86112549 204.89397946 -105.1817646 204.81609726 C-100.72044611 204.77672291 -96.25932202 204.74448551 -91.79785156 204.72900391 C-87.485784 204.71377072 -83.17425128 204.67920851 -78.86242294 204.63169098 C-77.2239944 204.61694546 -75.58548946 204.60896294 -73.94699478 204.60811615 C-63.44669848 204.59723981 -52.51593357 204.41797127 -44.3828125 196.703125 C-37.68662113 188.45583846 -35.97516757 180.26466118 -36.5390625 169.94140625 C-37.45994234 162.06710321 -40.62710169 155.6394124 -46.80047607 150.50152588 C-56.0695305 144.17391792 -67.16574332 144.39646386 -77.921875 144.390625 C-79.5189987 144.37561024 -81.11610707 144.3588763 -82.7131958 144.34051514 C-86.87561842 144.29719843 -91.03783176 144.27692274 -95.20043945 144.26177979 C-99.46447953 144.24207856 -103.72829776 144.20012414 -107.9921875 144.16015625 C-116.32809354 144.08524147 -124.6638384 144.03677905 -133 144 C-133 137.73 -133 131.46 -133 125 C-123.13427638 121.05371055 -112.17799592 121.78597728 -101.66821289 121.75976562 C-99.33378051 121.75008822 -97.00024181 121.71897382 -94.66601562 121.6875 C-74.61377832 121.54620507 -55.84439672 126.09172987 -38.0859375 135.41796875 C-34.46114015 137.27625094 -30.85125764 138.6905724 -27 140 C-27 140.66 -27 141.32 -27 142 C-25.948125 142.3403125 -25.948125 142.3403125 -24.875 142.6875 C-21.38351769 144.28143758 -18.91420235 146.51982778 -16 149 C-13.78412652 150.27852287 -13.78412652 150.27852287 -12 151 C-12 151.66 -12 152.32 -12 153 C-10.68 153.33 -9.36 153.66 -8 154 C-5.69 155.98 -3.38 157.96 -1 160 C-0.67 107.2 -0.34 54.4 0 0 Z " fill="#7CBAFE" transform="translate(417,129)"/>
<path d="M0 0 C5.9681007 5.36095626 9.42204158 12.48609516 10.30215454 20.41439819 C10.50590498 25.00898697 10.4308648 29.59841928 10.35546875 34.1953125 C10.34612404 35.88351893 10.33901578 37.57173906 10.33403015 39.25996399 C10.31509045 43.6677402 10.26610544 48.0746708 10.21051025 52.4821167 C10.15903355 56.99382087 10.13645591 61.50566389 10.11132812 66.01757812 C10.05797116 74.84413473 9.97282056 83.67000856 9.8671875 92.49609375 C10.75508972 92.4872113 11.64299194 92.47832886 12.55780029 92.46917725 C20.97164312 92.38865364 29.38535443 92.32793876 37.7994957 92.28884506 C42.12414897 92.2680701 46.44848085 92.23993991 50.77294922 92.19433594 C54.95512246 92.15051422 59.13698877 92.12688099 63.31937408 92.11658478 C64.90600661 92.10925795 66.49262449 92.09495249 68.07912445 92.07317352 C80.30463533 91.91219247 91.97822185 92.61827657 101.24609375 101.55859375 C108.03694625 109.67488974 108.73948554 119.16096178 108.12792969 129.33837891 C107.2192329 136.85810009 103.201355 142.79930507 97.4921875 147.55859375 C91.19306179 152.19446717 84.78959113 153.87576809 77.07421875 153.83666992 C76.34153275 153.837108 75.60884674 153.83754608 74.85395813 153.83799744 C72.46225151 153.83592823 70.07126974 153.81268743 67.6796875 153.7890625 C66.00960676 153.78345986 64.33952105 153.77919292 62.66943359 153.77619934 C58.29638808 153.76480307 53.92364652 153.73538151 49.55072021 153.7020874 C45.07942821 153.67127335 40.60808658 153.65766989 36.13671875 153.64257812 C27.38006961 153.61050622 18.62366648 153.55937389 9.8671875 153.49609375 C9.87606995 154.41349335 9.88495239 155.33089294 9.894104 156.27609253 C9.97451753 164.95545091 10.03528737 173.63468273 10.07443619 182.31432915 C10.09524022 186.77579622 10.1234251 191.23695341 10.16894531 195.69824219 C10.21266133 200.01008236 10.23637853 204.32162598 10.24669647 208.63367081 C10.25404193 210.27219429 10.2683851 211.91070302 10.29010773 213.54909897 C10.40450836 222.54174732 10.26533214 230.3785854 5.8671875 238.49609375 C5.3103125 239.56859375 4.7534375 240.64109375 4.1796875 241.74609375 C-1.26393464 248.21959035 -8.45954556 252.03170007 -16.8671875 252.8671875 C-26.45633376 253.16118036 -33.65223788 252.27702054 -41.15234375 245.734375 C-50.61145781 235.91681031 -50.69147335 224.74296179 -50.5234375 211.89453125 C-50.51596366 210.2048917 -50.51027614 208.51524341 -50.50628662 206.82559204 C-50.49112008 202.40972346 -50.45191759 197.99439332 -50.4074707 193.57873535 C-50.36632249 189.0603768 -50.34823414 184.54193 -50.328125 180.0234375 C-50.28541308 171.1807549 -50.21727275 162.33846935 -50.1328125 153.49609375 C-51.04212524 153.50275558 -51.95143799 153.50941742 -52.88830566 153.51628113 C-61.48001351 153.576525 -70.07164987 153.62213552 -78.66352081 153.65153027 C-83.08013459 153.66715071 -87.49657304 153.68832239 -91.91308594 153.72241211 C-96.17951671 153.75513532 -100.44577941 153.77297398 -104.71232605 153.78072548 C-106.33573551 153.78624581 -107.95913633 153.7970255 -109.58247375 153.81328392 C-125.22611717 153.96365497 -125.22611717 153.96365497 -132.1328125 150.49609375 C-132.89851562 150.14289063 -133.66421875 149.7896875 -134.453125 149.42578125 C-141.75351395 145.15932018 -145.99598865 138.6257372 -148.1328125 130.49609375 C-148.45195903 127.5324379 -148.50283918 124.60011151 -148.5078125 121.62109375 C-148.53230469 120.85667969 -148.55679688 120.09226562 -148.58203125 119.3046875 C-148.6190567 112.03535657 -146.15468752 105.97055985 -141.0078125 100.74609375 C-131.74457104 92.46921081 -121.03681804 92.95418999 -109.3125 93.10546875 C-107.60044012 93.11294234 -105.8883716 93.11862998 -104.17630005 93.12261963 C-99.7012511 93.13778813 -95.22673326 93.17699243 -90.75189209 93.22143555 C-86.17320944 93.26257943 -81.59443979 93.2806712 -77.015625 93.30078125 C-68.05445598 93.34349665 -59.09367865 93.41163948 -50.1328125 93.49609375 C-50.14169495 92.56838669 -50.15057739 91.64067963 -50.159729 90.68486023 C-50.24018284 81.90279975 -50.30093263 73.1208647 -50.34006119 64.3385191 C-50.36085453 59.82439521 -50.38901945 55.31057819 -50.43457031 50.79663086 C-50.47832499 46.4329156 -50.50201153 42.0694938 -50.51232147 37.70557594 C-50.51966009 36.04834187 -50.53398946 34.39112219 -50.55573273 32.73401451 C-50.71076522 20.41853517 -49.99818294 9.50988297 -41.0625 0.15234375 C-29.33334816 -9.91478253 -12.14831892 -8.56612231 0 0 Z M-33.1328125 19.49609375 C-35.7789217 24.71044529 -36.55867689 28.95401284 -36.47338867 34.81811523 C-36.47382675 35.61893021 -36.47426483 36.41974518 -36.47471619 37.24482727 C-36.47264046 39.86920283 -36.44936764 42.49292473 -36.42578125 45.1171875 C-36.42018096 46.94563956 -36.4159129 48.77409614 -36.41291809 50.60255432 C-36.40150344 55.39810777 -36.37206554 60.1933855 -36.33880615 64.98883057 C-36.30803219 69.88900015 -36.29439713 74.78921461 -36.27929688 79.68945312 C-36.24719245 89.29178732 -36.19603722 98.89391754 -36.1328125 108.49609375 C-37.65711128 108.48943192 -37.65711128 108.48943192 -39.21220398 108.4826355 C-48.79084259 108.44208487 -58.36946377 108.41210714 -67.94816875 108.39246941 C-72.87262742 108.38203406 -77.79701677 108.36787932 -82.72143555 108.34521484 C-87.4741312 108.32347771 -92.22676019 108.31152325 -96.97950172 108.30633926 C-98.79237734 108.30264508 -100.60524932 108.29543129 -102.41809654 108.28463364 C-104.95809172 108.27010719 -107.49781173 108.26811629 -110.0378418 108.26904297 C-111.16101807 108.25825714 -111.16101807 108.25825714 -112.30688477 108.24725342 C-117.90083379 108.2693241 -121.39609924 109.1632673 -125.8203125 112.55859375 C-128.82677218 116.3776101 -129.9548586 119.64280563 -130.1328125 124.49609375 C-129.20837625 129.44967666 -127.21092559 133.43750894 -123.1328125 136.49609375 C-117.97026408 139.10736128 -113.79975425 139.92328826 -107.99438477 139.83666992 C-107.21307693 139.837108 -106.4317691 139.83754608 -105.62678528 139.83799744 C-103.06733422 139.83592236 -100.5085541 139.81265277 -97.94921875 139.7890625 C-96.16560728 139.78346197 -94.38199117 139.77919403 -92.59837341 139.77619934 C-87.92118418 139.76478652 -83.24427778 139.73535026 -78.56719971 139.7020874 C-73.78767726 139.67130944 -69.00810877 139.65767754 -64.22851562 139.64257812 C-54.8631575 139.61047694 -45.49800859 139.55932399 -36.1328125 139.49609375 C-36.14391556 140.47613373 -36.15501862 141.45617371 -36.16645813 142.46591187 C-36.26812858 151.73386387 -36.34291848 161.00170167 -36.39187336 170.27008629 C-36.41788849 175.03429918 -36.45313746 179.79805933 -36.51000977 184.56201172 C-36.56461974 189.16563955 -36.59429374 193.76883385 -36.60719872 198.37276077 C-36.61638687 200.12294965 -36.63432872 201.8731167 -36.66146278 203.62311935 C-36.9925971 217.33897882 -36.9925971 217.33897882 -31.1328125 229.49609375 C-27.19800454 232.53662717 -23.31695518 233.0955199 -18.4453125 232.90625 C-14.37514458 232.18434522 -11.0125056 230.46048371 -8.1328125 227.49609375 C-5.48121629 222.32083873 -4.7063797 218.0946203 -4.79223633 212.26586914 C-4.79179825 211.47480774 -4.79136017 210.68374634 -4.79090881 209.86871338 C-4.79298422 207.27680011 -4.81625545 204.68554904 -4.83984375 202.09375 C-4.84544416 200.28771823 -4.84971216 198.48168189 -4.85270691 196.67564392 C-4.86412065 191.9392726 -4.89355774 187.20318051 -4.92681885 182.46691895 C-4.95759478 177.62707292 -4.97122829 172.78718145 -4.98632812 167.94726562 C-5.01843095 158.46341948 -5.06958506 148.97977991 -5.1328125 139.49609375 C-4.15277252 139.50719681 -3.17273254 139.51829987 -2.16299438 139.52973938 C7.10495762 139.63140983 16.37279542 139.70619973 25.64118004 139.75515461 C30.40539293 139.78116974 35.16915308 139.81641871 39.93310547 139.87329102 C44.5367333 139.92790099 49.1399276 139.95757499 53.74385452 139.97047997 C55.4940434 139.97966812 57.24421045 139.99760997 58.9942131 140.02474403 C72.68492364 140.31062949 72.68492364 140.31062949 84.8671875 134.49609375 C88.46058735 130.57602119 88.84888397 125.66683979 88.8671875 120.49609375 C87.88558191 114.82459479 85.37480759 112.71582238 80.8671875 109.49609375 C77.16867437 108.26325604 73.75787647 108.36448028 69.9074707 108.38256836 C69.09748627 108.38242233 68.28750183 108.38227631 67.45297241 108.38212585 C64.77461065 108.38282275 62.09631837 108.39060472 59.41796875 108.3984375 C57.56137632 108.40030247 55.7047834 108.401726 53.84819031 108.40272522 C48.96062869 108.40654415 44.07309676 108.41636914 39.18554688 108.4274292 C34.19857179 108.43765671 29.21159192 108.44222572 24.22460938 108.44726562 C14.43878903 108.45799194 4.65299074 108.47506091 -5.1328125 108.49609375 C-5.12615067 107.48433578 -5.11948883 106.47257782 -5.11262512 105.43016052 C-5.05173238 95.88159789 -5.00680068 86.3330748 -4.97737598 76.78436184 C-4.96173975 71.87560858 -4.94053877 66.96701245 -4.90649414 62.05834961 C-4.87382788 57.31860376 -4.85594412 52.57900877 -4.84818077 47.83915901 C-4.8426503 46.03350514 -4.83185063 44.22785924 -4.81562233 42.42226982 C-4.79375131 39.88737204 -4.79084959 37.35309263 -4.79223633 34.81811523 C-4.7814505 34.07652161 -4.77066467 33.33492798 -4.759552 32.57086182 C-4.79311109 26.87798597 -5.93883765 22.20875287 -9.5703125 17.71875 C-14.03678102 14.40239713 -17.94373591 13.73442365 -23.4765625 14.015625 C-27.55547456 14.75342821 -30.514012 16.25817466 -33.1328125 19.49609375 Z " fill="#050869" transform="translate(273.1328125,180.50390625)"/>
<path d="M0 0 C1.19281739 -0.00298657 1.19281739 -0.00298657 2.4097321 -0.00603348 C3.27743505 -0.00312064 4.145138 -0.0002078 5.03913498 0.00279331 C5.96543551 0.00193889 6.89173604 0.00108446 7.84610629 0.00020415 C10.95691648 -0.00144591 14.067673 0.004063 17.17847824 0.00952244 C19.40564091 0.00980444 21.63280367 0.00964633 23.85996628 0.00907993 C29.91326348 0.00879246 35.96654096 0.01468116 42.01983356 0.02165389 C48.34328296 0.0278957 54.66673278 0.02849189 60.99018478 0.0296793 C71.60601306 0.03243649 82.22183352 0.03868711 92.83765793 0.04760838 C103.77190235 0.05678768 114.70614481 0.06386598 125.6403923 0.06811619 C126.65140746 0.06851027 126.65140746 0.06851027 127.68284717 0.06891232 C131.06416473 0.07021736 134.44548229 0.07148107 137.82679987 0.07272422 C165.87729927 0.08309059 193.92779065 0.10077781 221.97828293 0.12304783 C221.97828293 0.45304783 221.97828293 0.78304783 221.97828293 1.12304783 C171.48828293 1.45304783 120.99828293 1.78304783 68.97828293 2.12304783 C69.96828293 5.75304783 70.95828293 9.38304783 71.97828293 13.12304783 C72.36646652 16.38452244 72.36646652 16.38452244 72.37672043 19.02539158 C72.38292404 20.01184666 72.38912766 20.99830173 72.39551926 22.01464939 C72.38158127 23.01979588 72.36764328 24.02494236 72.35328293 25.06054783 C72.34385666 26.11596775 72.33443039 27.17138767 72.32471848 28.25879002 C72.18278044 35.5717092 71.57777469 42.23233157 68.97828293 49.12304783 C68.3982048 50.72406345 68.3982048 50.72406345 67.80640793 52.35742283 C65.77843314 57.59009852 64.09222805 61.24915182 59.97828293 65.12304783 C59.44203293 66.03054783 58.90578293 66.93804783 58.35328293 67.87304783 C57.89953293 68.61554783 57.44578293 69.35804783 56.97828293 70.12304783 C56.31828293 70.12304783 55.65828293 70.12304783 54.97828293 70.12304783 C54.97828293 71.11304783 54.97828293 72.10304783 54.97828293 73.12304783 C53.65235519 74.50170994 53.65235519 74.50170994 51.79468918 75.90039158 C51.11341965 76.41408298 50.43215012 76.92777439 49.73023605 77.4570322 C49.00771652 77.98619236 48.28519699 78.51535252 47.54078293 79.06054783 C46.85306808 79.5858408 46.16535324 80.11113377 45.45679855 80.6523447 C40.07628941 84.6514394 33.89064711 89.12304783 26.97828293 89.12304783 C26.97828293 89.78304783 26.97828293 90.44304783 26.97828293 91.12304783 C12.60688546 94.59200584 0.66957943 95.06130713 -14.02171707 92.12304783 C-14.35171707 205.31304783 -14.68171707 318.50304783 -15.02171707 435.12304783 C-15.35171707 435.12304783 -15.68171707 435.12304783 -16.02171707 435.12304783 C-16.11324237 381.37154017 -16.18374044 327.62004037 -16.22597839 273.86847013 C-16.23098131 267.52478106 -16.23615859 261.18109214 -16.24144363 254.8374033 C-16.24249288 253.57447173 -16.24354212 252.31154017 -16.24462315 251.01033795 C-16.26203554 230.55239566 -16.29357784 210.09449826 -16.33032826 189.63658261 C-16.36771444 168.64995648 -16.38994801 147.66335389 -16.39807105 126.67669582 C-16.40356363 113.72341127 -16.42092094 100.77025359 -16.45338294 87.81700808 C-16.47450212 78.93840363 -16.48092299 70.05986492 -16.47572258 61.18123716 C-16.47315678 56.05623465 -16.47713174 50.9314541 -16.49853897 45.8064909 C-16.51799466 41.11451529 -16.51899338 36.42291105 -16.50531265 31.73091841 C-16.50362164 30.03360621 -16.50870414 28.3362709 -16.5212498 26.63900423 C-16.63117057 10.8499668 -16.63117057 10.8499668 -12.02171707 4.12304783 C-8.4673722 0.67977624 -4.83437822 -0.00267981 0 0 Z " fill="#7FBBFE" transform="translate(103.0217170715332,26.876952171325684)"/>
<path d="M0 0 C1.94140625 0.390625 1.94140625 0.390625 4 1 C4.70394612 2.31403276 5.36345658 3.6520257 6 5 C8.36157728 7.48587083 10.82214469 9.83175849 13.3125 12.1875 C15 14 15 14 15 16 C15.57621094 16.23976563 16.15242188 16.47953125 16.74609375 16.7265625 C19.45749956 18.25848329 21.02441882 20.02073052 23.0625 22.375 C26.59533709 26.40500787 30.17237858 30.37991809 33.8125 34.3125 C37.02148317 37.78079494 40.05759056 41.30473527 43 45 C43.825 45.825 44.65 46.65 45.5 47.5 C47.88146672 49.88146672 49.89871598 52.37339497 52 55 C52.825 55.825 53.65 56.65 54.5 57.5 C56.8804871 59.8804871 58.90787619 62.36797327 61 65 C61.7425 65.721875 62.485 66.44375 63.25 67.1875 C65 69 65 69 65 71 C65.639375 71.268125 66.27875 71.53625 66.9375 71.8125 C69 73 69 73 70 76 C71.485 76.495 71.485 76.495 73 77 C74.47265625 78.4609375 74.47265625 78.4609375 76.0625 80.375 C79.84441118 84.85995877 83.83427766 89.12325553 87.86328125 93.38671875 C89.93682154 95.92273055 90.87483378 97.96563373 92 101 C81.2992074 101.13919337 70.59863115 101.24571912 59.89711666 101.31087303 C54.92758582 101.34214846 49.95867562 101.38455184 44.98950195 101.45263672 C40.19135527 101.51796475 35.39380446 101.55373454 30.59524727 101.56926346 C28.76719345 101.58032574 26.93917122 101.60192855 25.11137199 101.63438034 C22.54481146 101.67812455 19.98069339 101.68392693 17.41381836 101.68115234 C16.66287399 101.702724 15.91192963 101.72429565 15.13822937 101.746521 C9.93420261 101.68589544 7.24881586 100.17656127 3.4307642 96.67917824 C-0.3965855 92.18731135 -0.27597102 87.88367699 -0.22705078 82.19238281 C-0.22734283 81.30422379 -0.22763489 80.41606476 -0.22793579 79.50099182 C-0.22654357 76.56826982 -0.21098737 73.63580256 -0.1953125 70.703125 C-0.19158199 68.66860086 -0.1887352 66.63407492 -0.18673706 64.59954834 C-0.17910362 59.24671461 -0.15945755 53.89398955 -0.1373291 48.54119873 C-0.11686449 43.07826202 -0.10773402 37.61530775 -0.09765625 32.15234375 C-0.07621144 21.43484811 -0.04207892 10.71743309 0 0 Z " fill="#020367" transform="translate(325,29)"/>
<path d="M0 0 C0.99 0.33 1.98 0.66 3 1 C3.33 2.65 3.66 4.3 4 6 C4.66 6 5.32 6 6 6 C6 33.72 6 61.44 6 90 C33.06 90 60.12 90 88 90 C88.33 90.66 88.66 91.32 89 92 C60.95 92 32.9 92 4 92 C3.5625 51.5 3.5625 51.5 3.43188477 38.74804688 C3.38859569 34.95073761 3.38859569 34.95073761 3.34410095 31.15344238 C3.32497615 29.47214543 3.30763169 27.79082762 3.29173279 26.10949707 C3.26718862 23.55144614 3.23685898 20.99351994 3.20532227 18.43554688 C3.19666688 17.3264156 3.19666688 17.3264156 3.18783665 16.19487762 C3.12075524 11.39380408 2.66717121 6.75593794 2 2 C1.34 2 0.68 2 0 2 C0 1.34 0 0.68 0 0 Z " fill="#414381" transform="translate(264,197)"/>
<path d="M0 0 C0.99 0.33 1.98 0.66 3 1 C3.6875 3.0625 3.6875 3.0625 4 5 C17.0898221 5.88318214 30.10965163 6.13493326 43.2265625 6.09765625 C45.19623783 6.09578516 47.16591363 6.09436453 49.1355896 6.09336853 C54.25473373 6.08959768 59.3738483 6.07981559 64.49298096 6.06866455 C69.74271241 6.05833184 74.99244876 6.05384582 80.2421875 6.04882812 C90.49480447 6.03818696 100.74739975 6.0211781 111 6 C111 6.66 111 7.32 111 8 C97.39611235 8.09264099 83.79229963 8.1637353 70.1881609 8.20724869 C63.8713397 8.22813193 57.55473418 8.25646367 51.23803711 8.30175781 C45.14316879 8.34518831 39.04850804 8.36913155 32.95349693 8.37950897 C30.62703877 8.38690529 28.30059209 8.40134837 25.97422218 8.42292023 C22.71799711 8.45191618 19.46263203 8.45595748 16.20629883 8.45410156 C15.24244766 8.46848267 14.2785965 8.48286377 13.28553772 8.49768066 C8.99695455 8.47119535 6.63950051 8.39105189 2.91288757 6.11224365 C0.98927533 3.98815764 0.30203967 2.81903693 0 0 Z " fill="#6FA7EA" transform="translate(89,465)"/>
<path d="M0 0 C4.11167879 2.92145598 5.02253559 4.05633898 7 9 C-20.39 9 -47.78 9 -76 9 C-76 8.67 -76 8.34 -76 8 C-50.26 7.67 -24.52 7.34 2 7 C2 6.34 2 5.68 2 5 C1.34 5 0.68 5 0 5 C0 3.35 0 1.7 0 0 Z " fill="#2344A8" transform="translate(410,121)"/>
<path d="M0 0 C0.66 0.33 1.32 0.66 2 1 C1.6875 3.375 1.6875 3.375 1 6 C0.01 6.66 -0.98 7.32 -2 8 C-2.31623271 10.59949558 -2.43741761 12.9665311 -2.43237305 15.57080078 C-2.4425647 16.35137848 -2.45275635 17.13195618 -2.46325684 17.93618774 C-2.49351074 20.52263449 -2.50267143 23.10871169 -2.51171875 25.6953125 C-2.52855629 27.48608646 -2.54670527 29.27684853 -2.56611633 31.06759644 C-2.61372306 35.78578986 -2.6434632 40.50393512 -2.66955566 45.22229004 C-2.69930753 50.03500893 -2.74585619 54.84756164 -2.79101562 59.66015625 C-2.87717004 69.1066841 -2.94446115 78.55324604 -3 88 C-3.33 88 -3.66 88 -4 88 C-4.09274882 77.41222759 -4.16378987 66.8245521 -4.20724869 56.23645592 C-4.22810857 51.31976327 -4.25639707 46.4033489 -4.30175781 41.48681641 C-4.34527251 36.74057918 -4.36914914 31.99460936 -4.37950897 27.24818802 C-4.38689024 25.43889787 -4.40130427 23.62962209 -4.42292023 21.82044601 C-4.45202938 19.28280963 -4.45595293 16.74627303 -4.45410156 14.20849609 C-4.46848267 13.46330719 -4.48286377 12.71811829 -4.49768066 11.9503479 C-4.45577915 6.62977644 -3.20056697 4.03714522 0 0 Z " fill="#85B7EB" transform="translate(92,30)"/>
<path d="M0 0 C0.33 0 0.66 0 1 0 C1 28.38 1 56.76 1 86 C-0.98 86.495 -0.98 86.495 -3 87 C-2.67657623 86.17740692 -2.35315247 85.35481384 -2.01992798 84.5072937 C-0.8745852 80.56872784 -0.69307758 76.94546979 -0.68115234 72.88330078 C-0.67110672 72.09238541 -0.6610611 71.30147003 -0.65071106 70.48658752 C-0.61998295 67.88950279 -0.60287298 65.29252067 -0.5859375 62.6953125 C-0.56721749 60.88783899 -0.54764346 59.08037413 -0.5272522 57.2729187 C-0.47601297 52.52849443 -0.43634337 47.78404184 -0.39910889 43.03948975 C-0.3590177 38.19292241 -0.30794872 33.34647199 -0.2578125 28.5 C-0.16115044 19.00008224 -0.07671462 9.50009832 0 0 Z " fill="#5C5C96" transform="translate(268,320)"/>
<path d="M0 0 C0 0.66 0 1.32 0 2 C-0.66 2 -1.32 2 -2 2 C-2.66 3.32 -3.32 4.64 -4 6 C-20.5 6 -37 6 -54 6 C-54 5.67 -54 5.34 -54 5 C-52.70900391 4.9906543 -51.41800781 4.98130859 -50.08789062 4.97167969 C-45.27179184 4.93163439 -40.45632209 4.86583515 -35.640625 4.79248047 C-33.56128048 4.76435501 -31.48183071 4.74309879 -29.40234375 4.72900391 C-26.40310108 4.70745762 -23.40511255 4.66074724 -20.40625 4.609375 C-19.48509399 4.60814636 -18.56393799 4.60691772 -17.61486816 4.60565186 C-11.17901172 4.46149079 -5.68774133 0 0 0 Z " fill="#11135D" transform="translate(358,315)"/>
<path d="M0 0 C1.875 0.25 1.875 0.25 4 1 C4.70151152 2.3153341 5.36525925 3.65117592 6 5 C8.03317007 6.73425773 8.03317007 6.73425773 10 8 C9.67 8.66 9.34 9.32 9 10 C7.68 9.67 6.36 9.34 5 9 C5 9.66 5 10.32 5 11 C3.68 11 2.36 11 1 11 C1.66666667 8.33333333 2.33333333 5.66666667 3 3 C2.01 3.33 1.02 3.66 0 4 C0 2.68 0 1.36 0 0 Z " fill="#272B77" transform="translate(325,29)"/>
<path d="M0 0 C0.33 0.99 0.66 1.98 1 3 C-4.4529148 8.72556054 -4.4529148 8.72556054 -8.24609375 9.3984375 C-10.4375 9.375 -10.4375 9.375 -14 9 C-13.43667969 8.73316406 -12.87335938 8.46632813 -12.29296875 8.19140625 C-9.8437112 6.91879372 -7.60217973 5.47783 -5.3125 3.9375 C-4.52488281 3.41027344 -3.73726563 2.88304687 -2.92578125 2.33984375 C-1.08300002 1.14186854 -1.08300002 1.14186854 0 0 Z " fill="#76A6F1" transform="translate(374,324)"/>
<path d="M0 0 C2.64752004 2.57784846 4.94432065 4.91648098 7 8 C4.69 8.33 2.38 8.66 0 9 C-1.15941038 5.52176885 -0.70820884 3.54104422 0 0 Z " fill="#272B78" transform="translate(341,45)"/>
<path d="M0 0 C1.32 0.99 2.64 1.98 4 3 C2.625 4.5 2.625 4.5 1 6 C0.34 6 -0.32 6 -1 6 C-1.12375 6.78375 -1.2475 7.5675 -1.375 8.375 C-2 11 -2 11 -4 13 C-4 10.36 -4 7.72 -4 5 C-2.68 4.67 -1.36 4.34 0 4 C-0.33 3.01 -0.66 2.02 -1 1 C-0.67 0.67 -0.34 0.34 0 0 Z " fill="#4A4B8D" transform="translate(241,194)"/>
<path d="M0 0 C3.60062011 2.77762123 6.83047153 5.73991357 10 9 C9.67 9.66 9.34 10.32 9 11 C5.34683329 9.75023244 4.21934164 9.32901247 2 6 C1.34 5.67 0.68 5.34 0 5 C0 3.35 0 1.7 0 0 Z " fill="#3F4185" transform="translate(360,66)"/>
<path d="M0 0 C0.33 0.99 0.66 1.98 1 3 C0.34 3 -0.32 3 -1 3 C-0.67 4.32 -0.34 5.64 0 7 C-1.32 7 -2.64 7 -4 7 C-4 6.34 -4 5.68 -4 5 C-5.32 4.67 -6.64 4.34 -8 4 C-6.03533587 2.93224776 -4.03144641 1.93446535 -2 1 C-1.34 1.33 -0.68 1.66 0 2 C0 1.34 0 0.68 0 0 Z " fill="#1B1A75" transform="translate(267,407)"/>
<path d="M0 0 C0 0.66 0 1.32 0 2 C-0.66 2 -1.32 2 -2 2 C-2.66 3.32 -3.32 4.64 -4 6 C-6.31 6 -8.62 6 -11 6 C-9.73083275 3.46166551 -8.58375191 3.10599099 -6.0625 1.875 C-5.35222656 1.52179688 -4.64195312 1.16859375 -3.91015625 0.8046875 C-2 0 -2 0 0 0 Z " fill="#393A7A" transform="translate(358,315)"/>
<path d="M0 0 C0.33 0 0.66 0 1 0 C0.67 2.31 0.34 4.62 0 7 C0.99 7.33 1.98 7.66 3 8 C1.35 9.65 -0.3 11.3 -2 13 C-2.66 12.67 -3.32 12.34 -4 12 C-3.79503906 11.46890625 -3.59007812 10.9378125 -3.37890625 10.390625 C-3.10949219 9.68421875 -2.84007812 8.9778125 -2.5625 8.25 C-2.29566406 7.55390625 -2.02882813 6.8578125 -1.75390625 6.140625 C-1.03853307 4.10940997 -0.48634348 2.0964709 0 0 Z " fill="#4B4A90" transform="translate(362,302)"/>
<path d="M0 0 C0.66 0.33 1.32 0.66 2 1 C1.8125 3.3125 1.8125 3.3125 1 6 C-1.5625 7.8125 -1.5625 7.8125 -4 9 C-3.46930939 5.17902761 -2.50298434 2.93828597 0 0 Z " fill="#9DC9F5" transform="translate(92,30)"/>
<path d="M0 0 C4.8 3.44615385 4.8 3.44615385 5.8125 6.25 C5.874375 6.8275 5.93625 7.405 6 8 C4.68 7.67 3.36 7.34 2 7 C2 6.34 2 5.68 2 5 C1.34 5 0.68 5 0 5 C0 3.35 0 1.7 0 0 Z " fill="#2F337D" transform="translate(410,121)"/>
<path d="M0 0 C0.86625 0.556875 0.86625 0.556875 1.75 1.125 C-0.5625 2.6875 -0.5625 2.6875 -3.25 4.125 C-4.24 3.795 -5.23 3.465 -6.25 3.125 C-6.25 2.465 -6.25 1.805 -6.25 1.125 C-2.80384615 -1.09038462 -2.80384615 -1.09038462 0 0 Z " fill="#05116E" transform="translate(269.25,426.875)"/>
<path d="M0 0 C2.0625 1.75 2.0625 1.75 4 4 C3.75 6.25 3.75 6.25 3 8 C1.68 8.33 0.36 8.66 -1 9 C-0.67 6.03 -0.34 3.06 0 0 Z " fill="#2B2B87" transform="translate(378,85)"/>
<path d="M0 0 C0.66 0 1.32 0 2 0 C1.34 3.96 0.68 7.92 0 12 C-2.79921583 7.80117625 -1.86558093 5.87872887 -1 1 C-0.67 0.67 -0.34 0.34 0 0 Z " fill="#5996F3" transform="translate(125,288)"/>
<path d="M0 0 C0.33 0.66 0.66 1.32 1 2 C1.99 2.33 2.98 2.66 4 3 C1.03 5.475 1.03 5.475 -2 8 C-1.125 2.25 -1.125 2.25 0 0 Z " fill="#5494F1" transform="translate(132,276)"/>
<path d="M0 0 C1.65 0 3.3 0 5 0 C5 0.66 5 1.32 5 2 C5.99 1.67 6.98 1.34 8 1 C8.33 2.65 8.66 4.3 9 6 C5.56404834 4.47291037 2.88087546 2.40072955 0 0 Z " fill="#4F5492" transform="translate(351,289)"/>
<path d="" fill="#FFFFFF" transform="translate(0,0)"/>
<path d="" fill="#FFFFFF" transform="translate(0,0)"/>
<path d="" fill="#FFFFFF" transform="translate(0,0)"/>
<path d="" fill="#FFFFFF" transform="translate(0,0)"/>
<path d="" fill="#FFFFFF" transform="translate(0,0)"/>
<path d="" fill="#FFFFFF" transform="translate(0,0)"/>
<path d="" fill="#FFFFFF" transform="translate(0,0)"/>
<path d="" fill="#FFFFFF" transform="translate(0,0)"/>
<path d="" fill="#FFFFFF" transform="translate(0,0)"/>
<path d="" fill="#FFFFFF" transform="translate(0,0)"/>
<path d="" fill="#FFFFFF" transform="translate(0,0)"/>
<path d="" fill="#FFFFFF" transform="translate(0,0)"/>
<path d="" fill="#FFFFFF" transform="translate(0,0)"/>
<path d="" fill="#FFFFFF" transform="translate(0,0)"/>
<path d="" fill="#FFFFFF" transform="translate(0,0)"/>
<path d="" fill="#FFFFFF" transform="translate(0,0)"/>
<path d="" fill="#FFFFFF" transform="translate(0,0)"/>
<path d="" fill="#FFFFFF" transform="translate(0,0)"/>
<path d="" fill="#FFFFFF" transform="translate(0,0)"/>
<path d="" fill="#FFFFFF" transform="translate(0,0)"/>
<path d="" fill="#FFFFFF" transform="translate(0,0)"/>
<path d="" fill="#FFFFFF" transform="translate(0,0)"/>
<path d="" fill="#FFFFFF" transform="translate(0,0)"/>
<path d="" fill="#FFFFFF" transform="translate(0,0)"/>
<path d="" fill="#FFFFFF" transform="translate(0,0)"/>
<path d="" fill="#FFFFFF" transform="translate(0,0)"/>
<path d="" fill="#FFFFFF" transform="translate(0,0)"/>
<path d="" fill="#FFFFFF" transform="translate(0,0)"/>
<path d="" fill="#FFFFFF" transform="translate(0,0)"/>
<path d="" fill="#FFFFFF" transform="translate(0,0)"/>
<path d="" fill="#FFFFFF" transform="translate(0,0)"/>
<path d="" fill="#FFFFFF" transform="translate(0,0)"/>
<path d="" fill="#FFFFFF" transform="translate(0,0)"/>
<path d="" fill="#FFFFFF" transform="translate(0,0)"/>
<path d="" fill="#FFFFFF" transform="translate(0,0)"/>
<path d="" fill="#FFFFFF" transform="translate(0,0)"/>
<path d="" fill="#FFFFFF" transform="translate(0,0)"/>
</svg>
